<?xml version="1.0" encoding="UTF-8" standalone="no"?>
<!DOCTYPE svg PUBLIC "-//W3C//DTD SVG 1.1//EN"
 "http://www.w3.org/Graphics/SVG/1.1/DTD/svg11.dtd">
<!-- Generated by graphviz version 2.40.1 (20161225.0304)
 -->
<!-- Title: G Pages: 1 -->
<svg width="1033pt" height="580pt"
 viewBox="0.00 0.00 1033.00 580.00" xmlns="http://www.w3.org/2000/svg" xmlns:xlink="http://www.w3.org/1999/xlink">
<g id="graph0" class="graph" transform="scale(1 1) rotate(0) translate(4 576)">
<title>G</title>
<polygon fill="#ffffff" stroke="transparent" points="-4,4 -4,-576 1029,-576 1029,4 -4,4"/>
<g id="clust1" class="cluster">
<title>cluster_G</title>
<path fill="#808080" fill-opacity="0.094118" stroke="#000000" d="M20,-8C20,-8 1005,-8 1005,-8 1011,-8 1017,-14 1017,-20 1017,-20 1017,-552 1017,-552 1017,-558 1011,-564 1005,-564 1005,-564 20,-564 20,-564 14,-564 8,-558 8,-552 8,-552 8,-20 8,-20 8,-14 14,-8 20,-8"/>
</g>
<!-- quizrunner -->
<g id="node1" class="node">
<title>quizrunner</title>
<ellipse fill="#ffffff" fill-opacity="0.698039" stroke="#000000" cx="762" cy="-538" rx="52.7315" ry="18"/>
<text text-anchor="middle" x="762" y="-533.8" font-family="Times,serif" font-size="14.00" fill="#000000">quizrunner</text>
</g>
<!-- quizrunner__run -->
<g id="node12" class="node">
<title>quizrunner__run</title>
<ellipse fill="#fecccc" fill-opacity="0.698039" stroke="#000000" cx="762" cy="-466" rx="27" ry="18"/>
<text text-anchor="middle" x="762" y="-461.8" font-family="Times,serif" font-size="14.00" fill="#000000">run</text>
</g>
<!-- quizrunner&#45;&gt;quizrunner__run -->
<g id="edge1" class="edge">
<title>quizrunner&#45;&gt;quizrunner__run</title>
<path fill="none" stroke="#000000" d="M762,-519.8314C762,-512.131 762,-502.9743 762,-494.4166"/>
<polygon fill="#000000" stroke="#000000" points="765.5001,-494.4132 762,-484.4133 758.5001,-494.4133 765.5001,-494.4132"/>
</g>
<!-- quizrunner__are_we_finished -->
<g id="node2" class="node">
<title>quizrunner__are_we_finished</title>
<ellipse fill="#fecccc" fill-opacity="0.698039" stroke="#000000" cx="641" cy="-178" rx="74.6995" ry="18"/>
<text text-anchor="middle" x="641" y="-173.8" font-family="Times,serif" font-size="14.00" fill="#000000">are_we_finished</text>
</g>
<!-- quizrunner__check_answer -->
<g id="node3" class="node">
<title>quizrunner__check_answer</title>
<ellipse fill="#fecccc" fill-opacity="0.698039" stroke="#000000" cx="422" cy="-106" rx="65.9522" ry="18"/>
<text text-anchor="middle" x="422" y="-101.8" font-family="Times,serif" font-size="14.00" fill="#000000">check_answer</text>
</g>
<!-- quizrunner__say -->
<g id="node15" class="node">
<title>quizrunner__say</title>
<ellipse fill="#fecccc" fill-opacity="0.698039" stroke="#000000" cx="527" cy="-34" rx="27" ry="18"/>
<text text-anchor="middle" x="527" y="-29.8" font-family="Times,serif" font-size="14.00" fill="#000000">say</text>
</g>
<!-- quizrunner__check_answer&#45;&gt;quizrunner__say -->
<g id="edge23" class="edge">
<title>quizrunner__check_answer&#45;&gt;quizrunner__say</title>
<path fill="none" stroke="#000000" d="M446.6178,-89.1192C462.4724,-78.2475 483.1063,-64.0986 499.4985,-52.8582"/>
<polygon fill="#000000" stroke="#000000" points="501.8436,-55.4939 508.1116,-46.9521 497.8849,-49.7208 501.8436,-55.4939"/>
</g>
<!-- quizrunner__check_in -->
<g id="node4" class="node">
<title>quizrunner__check_in</title>
<ellipse fill="#fecccc" fill-opacity="0.698039" stroke="#000000" cx="592" cy="-250" rx="45.7887" ry="18"/>
<text text-anchor="middle" x="592" y="-245.8" font-family="Times,serif" font-size="14.00" fill="#000000">check_in</text>
</g>
<!-- quizrunner__check_in&#45;&gt;quizrunner__say -->
<g id="edge2" class="edge">
<title>quizrunner__check_in&#45;&gt;quizrunner__say</title>
<path fill="none" stroke="#000000" d="M578.12,-232.4841C570.7696,-222.363 562.2095,-209.0773 557,-196 547.4733,-172.0852 536.5123,-101.7123 530.8436,-62.0347"/>
<polygon fill="#000000" stroke="#000000" points="534.2844,-61.3685 529.423,-51.9548 527.3528,-62.3454 534.2844,-61.3685"/>
</g>
<!-- quizrunner__do_runner_things -->
<g id="node5" class="node">
<title>quizrunner__do_runner_things</title>
<ellipse fill="#fecccc" fill-opacity="0.698039" stroke="#000000" cx="439" cy="-394" rx="79.3212" ry="18"/>
<text text-anchor="middle" x="439" y="-389.8" font-family="Times,serif" font-size="14.00" fill="#000000">do_runner_things</text>
</g>
<!-- quizrunner__goodbye -->
<g id="node8" class="node">
<title>quizrunner__goodbye</title>
<ellipse fill="#fecccc" fill-opacity="0.698039" stroke="#000000" cx="60" cy="-106" rx="44.0891" ry="18"/>
<text text-anchor="middle" x="60" y="-101.8" font-family="Times,serif" font-size="14.00" fill="#000000">goodbye</text>
</g>
<!-- quizrunner__do_runner_things&#45;&gt;quizrunner__goodbye -->
<g id="edge7" class="edge">
<title>quizrunner__do_runner_things&#45;&gt;quizrunner__goodbye</title>
<path fill="none" stroke="#000000" d="M391.1994,-379.5317C360.8029,-369.7213 320.9248,-355.7113 287,-340 229.1726,-313.2189 214.2774,-305.84 163,-268 125.039,-239.9868 109.5854,-236.2658 85,-196 73.4313,-177.0529 67.0864,-152.6339 63.6866,-134.0131"/>
<polygon fill="#000000" stroke="#000000" points="67.1276,-133.3682 62.0471,-124.0709 60.2209,-134.5072 67.1276,-133.3682"/>
</g>
<!-- quizrunner__run_the_quiz -->
<g id="node14" class="node">
<title>quizrunner__run_the_quiz</title>
<ellipse fill="#fecccc" fill-opacity="0.698039" stroke="#000000" cx="358" cy="-322" rx="61.9828" ry="18"/>
<text text-anchor="middle" x="358" y="-317.8" font-family="Times,serif" font-size="14.00" fill="#000000">run_the_quiz</text>
</g>
<!-- quizrunner__do_runner_things&#45;&gt;quizrunner__run_the_quiz -->
<g id="edge9" class="edge">
<title>quizrunner__do_runner_things&#45;&gt;quizrunner__run_the_quiz</title>
<path fill="none" stroke="#000000" d="M418.9775,-376.2022C408.799,-367.1546 396.2786,-356.0255 385.2369,-346.2105"/>
<polygon fill="#000000" stroke="#000000" points="387.3121,-343.3723 377.5127,-339.3446 382.6615,-348.6042 387.3121,-343.3723"/>
</g>
<!-- quizrunner__wait_for_checkins -->
<g id="node18" class="node">
<title>quizrunner__wait_for_checkins</title>
<ellipse fill="#fecccc" fill-opacity="0.698039" stroke="#000000" cx="520" cy="-322" rx="82.2237" ry="18"/>
<text text-anchor="middle" x="520" y="-317.8" font-family="Times,serif" font-size="14.00" fill="#000000">wait_for_checkins</text>
</g>
<!-- quizrunner__do_runner_things&#45;&gt;quizrunner__wait_for_checkins -->
<g id="edge8" class="edge">
<title>quizrunner__do_runner_things&#45;&gt;quizrunner__wait_for_checkins</title>
<path fill="none" stroke="#000000" d="M459.0225,-376.2022C469.1256,-367.2217 481.536,-356.1902 492.5175,-346.4289"/>
<polygon fill="#000000" stroke="#000000" points="495.059,-348.8526 500.2078,-339.593 490.4084,-343.6208 495.059,-348.8526"/>
</g>
<!-- quizrunner__do_team_player_things -->
<g id="node6" class="node">
<title>quizrunner__do_team_player_things</title>
<ellipse fill="#fecccc" fill-opacity="0.698039" stroke="#000000" cx="722" cy="-322" rx="101.8709" ry="18"/>
<text text-anchor="middle" x="722" y="-317.8" font-family="Times,serif" font-size="14.00" fill="#000000">do_team_player_things</text>
</g>
<!-- quizrunner__do_team_player_things&#45;&gt;quizrunner__check_in -->
<g id="edge24" class="edge">
<title>quizrunner__do_team_player_things&#45;&gt;quizrunner__check_in</title>
<path fill="none" stroke="#000000" d="M690.8618,-304.7542C671.9267,-294.2671 647.6726,-280.8341 627.9269,-269.898"/>
<polygon fill="#000000" stroke="#000000" points="629.3675,-266.6949 618.9238,-264.9116 625.9759,-272.8184 629.3675,-266.6949"/>
</g>
<!-- quizrunner__play_the_quiz -->
<g id="node10" class="node">
<title>quizrunner__play_the_quiz</title>
<ellipse fill="#fecccc" fill-opacity="0.698039" stroke="#000000" cx="722" cy="-250" rx="65.9949" ry="18"/>
<text text-anchor="middle" x="722" y="-245.8" font-family="Times,serif" font-size="14.00" fill="#000000">play_the_quiz</text>
</g>
<!-- quizrunner__do_team_player_things&#45;&gt;quizrunner__play_the_quiz -->
<g id="edge25" class="edge">
<title>quizrunner__do_team_player_things&#45;&gt;quizrunner__play_the_quiz</title>
<path fill="none" stroke="#000000" d="M722,-303.8314C722,-296.131 722,-286.9743 722,-278.4166"/>
<polygon fill="#000000" stroke="#000000" points="725.5001,-278.4132 722,-268.4133 718.5001,-278.4133 725.5001,-278.4132"/>
</g>
<!-- quizrunner__wait_for_start -->
<g id="node21" class="node">
<title>quizrunner__wait_for_start</title>
<ellipse fill="#fecccc" fill-opacity="0.698039" stroke="#000000" cx="871" cy="-250" rx="65.4033" ry="18"/>
<text text-anchor="middle" x="871" y="-245.8" font-family="Times,serif" font-size="14.00" fill="#000000">wait_for_start</text>
</g>
<!-- quizrunner__do_team_player_things&#45;&gt;quizrunner__wait_for_start -->
<g id="edge26" class="edge">
<title>quizrunner__do_team_player_things&#45;&gt;quizrunner__wait_for_start</title>
<path fill="none" stroke="#000000" d="M757.3109,-304.937C778.9429,-294.484 806.7372,-281.0532 829.4291,-270.088"/>
<polygon fill="#000000" stroke="#000000" points="831.0072,-273.2126 838.4883,-265.7103 827.9616,-266.9099 831.0072,-273.2126"/>
</g>
<!-- quizrunner__end_round -->
<g id="node7" class="node">
<title>quizrunner__end_round</title>
<ellipse fill="#fecccc" fill-opacity="0.698039" stroke="#000000" cx="175" cy="-106" rx="52.1752" ry="18"/>
<text text-anchor="middle" x="175" y="-101.8" font-family="Times,serif" font-size="14.00" fill="#000000">end_round</text>
</g>
<!-- quizrunner__end_round&#45;&gt;quizrunner__say -->
<g id="edge4" class="edge">
<title>quizrunner__end_round&#45;&gt;quizrunner__say</title>
<path fill="none" stroke="#000000" d="M215.36,-94.4459C223.8006,-92.1835 232.667,-89.9198 241,-88 330.0483,-67.4847 436.009,-49.0065 490.5492,-39.9251"/>
<polygon fill="#000000" stroke="#000000" points="491.1413,-43.3748 500.4353,-38.2884 489.9979,-36.4688 491.1413,-43.3748"/>
</g>
<!-- quizrunner__goodbye&#45;&gt;quizrunner__say -->
<g id="edge20" class="edge">
<title>quizrunner__goodbye&#45;&gt;quizrunner__say</title>
<path fill="none" stroke="#000000" d="M93.1298,-93.8476C99.9632,-91.6557 107.1619,-89.5714 114,-88 250.6935,-56.5874 417.3347,-41.7763 490.0745,-36.4425"/>
<polygon fill="#000000" stroke="#000000" points="490.3863,-39.9292 500.1105,-35.7235 489.886,-32.9471 490.3863,-39.9292"/>
</g>
<!-- quizrunner__play_a_round -->
<g id="node9" class="node">
<title>quizrunner__play_a_round</title>
<ellipse fill="#fecccc" fill-opacity="0.698039" stroke="#000000" cx="798" cy="-178" rx="64.2727" ry="18"/>
<text text-anchor="middle" x="798" y="-173.8" font-family="Times,serif" font-size="14.00" fill="#000000">play_a_round</text>
</g>
<!-- quizrunner__round_is_over -->
<g id="node11" class="node">
<title>quizrunner__round_is_over</title>
<ellipse fill="#fecccc" fill-opacity="0.698039" stroke="#000000" cx="653" cy="-106" rx="66.6402" ry="18"/>
<text text-anchor="middle" x="653" y="-101.8" font-family="Times,serif" font-size="14.00" fill="#000000">round_is_over</text>
</g>
<!-- quizrunner__play_a_round&#45;&gt;quizrunner__round_is_over -->
<g id="edge5" class="edge">
<title>quizrunner__play_a_round&#45;&gt;quizrunner__round_is_over</title>
<path fill="none" stroke="#000000" d="M766.1791,-162.1993C745.0772,-151.7211 717.1774,-137.8674 694.3589,-126.5368"/>
<polygon fill="#000000" stroke="#000000" points="695.7609,-123.3253 685.2477,-122.0127 692.6477,-129.5949 695.7609,-123.3253"/>
</g>
<!-- quizrunner__play_a_round&#45;&gt;quizrunner__say -->
<g id="edge6" class="edge">
<title>quizrunner__play_a_round&#45;&gt;quizrunner__say</title>
<path fill="none" stroke="#000000" d="M788.8954,-159.9206C777.6248,-139.3921 756.5039,-106.3742 729,-88 678.2483,-54.0949 607.0266,-41.4327 564.1162,-36.7349"/>
<polygon fill="#000000" stroke="#000000" points="564.4069,-33.2466 554.1068,-35.7279 563.7061,-40.2114 564.4069,-33.2466"/>
</g>
<!-- quizrunner__play_the_quiz&#45;&gt;quizrunner__are_we_finished -->
<g id="edge11" class="edge">
<title>quizrunner__play_the_quiz&#45;&gt;quizrunner__are_we_finished</title>
<path fill="none" stroke="#000000" d="M702.3922,-232.5708C692.2196,-223.5286 679.6256,-212.3338 668.4969,-202.4417"/>
<polygon fill="#000000" stroke="#000000" points="670.5074,-199.546 660.708,-195.5182 665.8569,-204.7778 670.5074,-199.546"/>
</g>
<!-- quizrunner__play_the_quiz&#45;&gt;quizrunner__play_a_round -->
<g id="edge10" class="edge">
<title>quizrunner__play_the_quiz&#45;&gt;quizrunner__play_a_round</title>
<path fill="none" stroke="#000000" d="M740.3975,-232.5708C750.0128,-223.4616 761.9339,-212.1679 772.4323,-202.2221"/>
<polygon fill="#000000" stroke="#000000" points="774.9195,-204.687 779.7719,-195.2687 770.1053,-199.6053 774.9195,-204.687"/>
</g>
<!-- quizrunner__round_is_over&#45;&gt;quizrunner__say -->
<g id="edge22" class="edge">
<title>quizrunner__round_is_over&#45;&gt;quizrunner__say</title>
<path fill="none" stroke="#000000" d="M624.4086,-89.6621C604.134,-78.0766 577.001,-62.572 556.5209,-50.8691"/>
<polygon fill="#000000" stroke="#000000" points="558.0468,-47.7099 547.6278,-45.7873 554.5738,-53.7876 558.0468,-47.7099"/>
</g>
<!-- quizrunner__run&#45;&gt;quizrunner__do_runner_things -->
<g id="edge28" class="edge">
<title>quizrunner__run&#45;&gt;quizrunner__do_runner_things</title>
<path fill="none" stroke="#000000" d="M736.3847,-460.2901C686.9342,-449.2671 576.902,-424.7398 505.4348,-408.809"/>
<polygon fill="#000000" stroke="#000000" points="506.1387,-405.3801 495.6167,-406.6205 504.6157,-412.2124 506.1387,-405.3801"/>
</g>
<!-- quizrunner__run&#45;&gt;quizrunner__do_team_player_things -->
<g id="edge30" class="edge">
<title>quizrunner__run&#45;&gt;quizrunner__do_team_player_things</title>
<path fill="none" stroke="#000000" d="M750.4316,-449.2855C743.9082,-438.9998 736.2382,-425.2822 732,-412 725.5981,-391.937 723.1579,-368.2278 722.2863,-350.1816"/>
<polygon fill="#000000" stroke="#000000" points="725.7784,-349.8926 721.9305,-340.0213 718.7827,-350.1377 725.7784,-349.8926"/>
</g>
<!-- quizrunner__show_results -->
<g id="node16" class="node">
<title>quizrunner__show_results</title>
<ellipse fill="#fecccc" fill-opacity="0.698039" stroke="#000000" cx="802" cy="-394" rx="61.4147" ry="18"/>
<text text-anchor="middle" x="802" y="-389.8" font-family="Times,serif" font-size="14.00" fill="#000000">show_results</text>
</g>
<!-- quizrunner__run&#45;&gt;quizrunner__show_results -->
<g id="edge29" class="edge">
<title>quizrunner__run&#45;&gt;quizrunner__show_results</title>
<path fill="none" stroke="#000000" d="M771.4794,-448.937C776.1231,-440.5785 781.8245,-430.3159 787.0375,-420.9325"/>
<polygon fill="#000000" stroke="#000000" points="790.2335,-422.3866 792.0304,-411.9453 784.1144,-418.9871 790.2335,-422.3866"/>
</g>
<!-- quizrunner__wait_for_role -->
<g id="node20" class="node">
<title>quizrunner__wait_for_role</title>
<ellipse fill="#fecccc" fill-opacity="0.698039" stroke="#000000" cx="945" cy="-394" rx="63.6813" ry="18"/>
<text text-anchor="middle" x="945" y="-389.8" font-family="Times,serif" font-size="14.00" fill="#000000">wait_for_role</text>
</g>
<!-- quizrunner__run&#45;&gt;quizrunner__wait_for_role -->
<g id="edge27" class="edge">
<title>quizrunner__run&#45;&gt;quizrunner__wait_for_role</title>
<path fill="none" stroke="#000000" d="M785.5494,-456.7347C813.9063,-445.5779 862.2105,-426.5729 898.2392,-412.3977"/>
<polygon fill="#000000" stroke="#000000" points="899.5567,-415.6406 907.5809,-408.7223 896.9938,-409.1266 899.5567,-415.6406"/>
</g>
<!-- quizrunner__run_a_round -->
<g id="node13" class="node">
<title>quizrunner__run_a_round</title>
<ellipse fill="#fecccc" fill-opacity="0.698039" stroke="#000000" cx="232" cy="-250" rx="60.2614" ry="18"/>
<text text-anchor="middle" x="232" y="-245.8" font-family="Times,serif" font-size="14.00" fill="#000000">run_a_round</text>
</g>
<!-- quizrunner__run_a_round&#45;&gt;quizrunner__end_round -->
<g id="edge15" class="edge">
<title>quizrunner__run_a_round&#45;&gt;quizrunner__end_round</title>
<path fill="none" stroke="#000000" d="M186.5358,-238.0449C150.9704,-227.6655 105.7896,-211.8504 95,-196 85.9966,-182.7736 87.4908,-174.1284 95,-160 103.0106,-144.9281 117.3117,-133.3011 131.6294,-124.7637"/>
<polygon fill="#000000" stroke="#000000" points="133.4463,-127.7582 140.4902,-119.844 130.0484,-121.6382 133.4463,-127.7582"/>
</g>
<!-- quizrunner__run_a_round&#45;&gt;quizrunner__say -->
<g id="edge17" class="edge">
<title>quizrunner__run_a_round&#45;&gt;quizrunner__say</title>
<path fill="none" stroke="#000000" d="M180.0132,-240.7528C154.3136,-233.2754 125.5428,-219.8768 110,-196 101.2712,-182.5908 100.3649,-172.7736 110,-160 145.0724,-113.5035 180.2913,-140.9864 236,-124 285.6082,-108.8737 297.4924,-103.4523 347,-88 397.5302,-72.2285 456.3115,-54.758 492.5887,-44.077"/>
<polygon fill="#000000" stroke="#000000" points="493.5919,-47.4302 502.1984,-41.2515 491.6172,-40.7145 493.5919,-47.4302"/>
</g>
<!-- quizrunner__wait_for_buttons_to_clear -->
<g id="node17" class="node">
<title>quizrunner__wait_for_buttons_to_clear</title>
<ellipse fill="#fecccc" fill-opacity="0.698039" stroke="#000000" cx="232" cy="-178" rx="112.8829" ry="18"/>
<text text-anchor="middle" x="232" y="-173.8" font-family="Times,serif" font-size="14.00" fill="#000000">wait_for_buttons_to_clear</text>
</g>
<!-- quizrunner__run_a_round&#45;&gt;quizrunner__wait_for_buttons_to_clear -->
<g id="edge18" class="edge">
<title>quizrunner__run_a_round&#45;&gt;quizrunner__wait_for_buttons_to_clear</title>
<path fill="none" stroke="#000000" d="M232,-231.8314C232,-224.131 232,-214.9743 232,-206.4166"/>
<polygon fill="#000000" stroke="#000000" points="235.5001,-206.4132 232,-196.4133 228.5001,-206.4133 235.5001,-206.4132"/>
</g>
<!-- quizrunner__wait_for_end -->
<g id="node19" class="node">
<title>quizrunner__wait_for_end</title>
<ellipse fill="#fecccc" fill-opacity="0.698039" stroke="#000000" cx="425" cy="-178" rx="62.5412" ry="18"/>
<text text-anchor="middle" x="425" y="-173.8" font-family="Times,serif" font-size="14.00" fill="#000000">wait_for_end</text>
</g>
<!-- quizrunner__run_a_round&#45;&gt;quizrunner__wait_for_end -->
<g id="edge16" class="edge">
<title>quizrunner__run_a_round&#45;&gt;quizrunner__wait_for_end</title>
<path fill="none" stroke="#000000" d="M270.1306,-235.7751C300.8262,-224.3239 344.1431,-208.1642 377.1633,-195.8458"/>
<polygon fill="#000000" stroke="#000000" points="378.4729,-199.093 386.6188,-192.3184 376.0262,-192.5345 378.4729,-199.093"/>
</g>
<!-- quizrunner__run_the_quiz&#45;&gt;quizrunner__run_a_round -->
<g id="edge13" class="edge">
<title>quizrunner__run_the_quiz&#45;&gt;quizrunner__run_a_round</title>
<path fill="none" stroke="#000000" d="M329.7231,-305.8418C311.809,-295.6052 288.4476,-282.2558 269.0583,-271.1762"/>
<polygon fill="#000000" stroke="#000000" points="270.6014,-268.0269 260.1825,-266.1043 267.1284,-274.1046 270.6014,-268.0269"/>
</g>
<!-- quizrunner__run_the_quiz&#45;&gt;quizrunner__say -->
<g id="edge14" class="edge">
<title>quizrunner__run_the_quiz&#45;&gt;quizrunner__say</title>
<path fill="none" stroke="#000000" d="M384.8233,-305.6395C416.965,-284.5205 469.8705,-244.6422 497,-196 503.4356,-184.4611 516.2088,-105.191 522.8191,-61.9692"/>
<polygon fill="#000000" stroke="#000000" points="526.281,-62.4834 524.3215,-52.0713 519.3603,-61.4328 526.281,-62.4834"/>
</g>
<!-- quizrunner__show_results&#45;&gt;quizrunner__say -->
<g id="edge19" class="edge">
<title>quizrunner__show_results&#45;&gt;quizrunner__say</title>
<path fill="none" stroke="#000000" d="M837.8717,-379.2286C883.0939,-357.937 955,-314.017 955,-250 955,-250 955,-250 955,-178 955,-95.762 667.5556,-51.6037 563.7948,-38.3426"/>
<polygon fill="#000000" stroke="#000000" points="564.1313,-34.8574 553.7733,-37.0853 563.2598,-41.803 564.1313,-34.8574"/>
</g>
<!-- quizrunner__wait_for_checkins&#45;&gt;quizrunner__say -->
<g id="edge21" class="edge">
<title>quizrunner__wait_for_checkins&#45;&gt;quizrunner__say</title>
<path fill="none" stroke="#000000" d="M520.4379,-303.9843C521.6213,-255.2939 524.8904,-120.7961 526.3181,-62.0573"/>
<polygon fill="#000000" stroke="#000000" points="529.8182,-62.091 526.5623,-52.0089 522.8202,-61.9208 529.8182,-62.091"/>
</g>
<!-- quizrunner__wait_for_end&#45;&gt;quizrunner__check_answer -->
<g id="edge12" class="edge">
<title>quizrunner__wait_for_end&#45;&gt;quizrunner__check_answer</title>
<path fill="none" stroke="#000000" d="M424.243,-159.8314C423.9221,-152.131 423.5406,-142.9743 423.184,-134.4166"/>
<polygon fill="#000000" stroke="#000000" points="426.6806,-134.2589 422.7672,-124.4133 419.6867,-134.5503 426.6806,-134.2589"/>
</g>
<!-- quizrunner__wait_for_role&#45;&gt;quizrunner__say -->
<g id="edge3" class="edge">
<title>quizrunner__wait_for_role&#45;&gt;quizrunner__say</title>
<path fill="none" stroke="#000000" d="M951.216,-376.0648C960.0032,-349.0676 975,-296.2216 975,-250 975,-250 975,-250 975,-178 975,-147.2844 1001.5601,-146.0341 870,-88 815.5456,-63.9789 641.0248,-44.8866 564.0593,-37.4112"/>
<polygon fill="#000000" stroke="#000000" points="564.1577,-33.9047 553.8693,-36.4342 563.4896,-40.8727 564.1577,-33.9047"/>
</g>
</g>
</svg>
